<?xml version="1.0"?>
<svg xmlns:rdf="http://www.w3.org/1999/02/22-rdf-syntax-ns#" xmlns="http://www.w3.org/2000/svg" xmlns:cc="http://web.resource.org/cc/" xmlns:dc="http://purl.org/dc/elements/1.1/" xmlns:sodipodi="http://inkscape.sourceforge.net/DTD/sodipodi-0.dtd" id="svg5095" sodipodi:docname="fight.svg" sodipodi:version="0.32" height="380pt" width="250pt" version="1.0" sodipodi:docbase="C:\foo\wikipedia\transfer">
 <sodipodi:namedview id="base" bordercolor="#666666" pagecolor="#ffffff" borderopacity="1.0"/>
 <path id="path5106" d="m138.96 472.03c-14.81-5.32-47.358 10.6-48.875-11.51-2.302-42.37 4.81-85.69-7.251-127.13-3.977-22.5-25.75-34.51-34.892-54.46-11.729-17.03-21.489-35.2-31.78-53.13-13.724-16.14-7.0259-36.88-2.641-55.12 6.961-20.68-1.578-43 6.165-63.35 16.94-13.094 3.145-34.293 5.44-51.259-2.086-18.928 15.609-29.101 22.224-44.768 12.501-5.6383 38.271-12.662 44.539 1.852-11.472-3.003-37.092-6.5931-32.442 11.847-11.957 11.917 5.752 29.041 3.61 43.77 2.884 2.952 21.212-1.452 13.071 9.872-18.043 9.284 3.407 33.236 16.766 22.116 5.687-4.888 28.436-16.15 13.506-2.777-12.959 12.597-35.211 21.877-42.181-1.659-5.588-7.896 2.31-21.14-11.593-9.796-13.334 3.075-12.776 14.492-17.624 22.522-21.114-2.35-0.435 30.39 12.138 31.9 14.299 7.83 36.977 10.49 47.51-3.75 9.2-7.94 17.84-26.24 29.53-26.71 0.54 18.51-5.69 44.11 18.34 50.36 24.28 13.56 27.17-21.25 30.15-37.08 3.47-18.67-0.37-38.261 5.63-56.338 5.64-9.036 6.41-27.198 18.45-11.895-11.91 12.941 17.55 30.753-4.19 34.382-13.66 15.701-10.18 37.331-5.08 55.391-3.85 18.56 24.84 43.56 36.83 22.58 4.57-23.02 7.46-46.6 10.78-69.936 3.83-13.845-3.54-31.007-4.95-40.769 10.11 5.257 10.56 20.227 25.37 13.276 7.72-4.408 39.66 9.182 21.27 10.188-7.93-5.384-31.18-0.615-10.16 1.248-11.82 11.082-28.28 28.263-29.39 47.713-5.53 16.91 0.02 35.61 20.05 35.64 12.95 13.87 23.09-14.59 23.18-26.32 2.19-15.24 5.46-23.12 9.85-10.11 9.82 5.31-14.35 25.41-1.47 35.65-12.78 12.35-29.56 18.86-38.16 34.98-11.81 14.26-29.67 25.02-45.91 28.58 4.7 9.59-1.75 15.67-4.24 3.17-0.31-11.86-18.2-36.76-17.72-11.54 1.78 8.48-4.96 35.19-6.88 14.08 6.56-18.26-0.7-37.46-18.12-45.92-22.13 3.71-42.82-8.6-64.7-5-3.111-5.5 0.998-16.05-8.462-10.26 4.753-7.78 7.192-26.68-7.603-17.57-6.215-1.58-32.757-5.78-15.934 4.18 13.694-5.06 15.83 13.95 1.321 7.45-17.556-2.51-8.262 15.56 4.307 11.78 7.282 6.67-32.943 22.51-7.866 30.97 4.088 6.93-7.174 25.51 10.583 16.68 9.684-3.78 15.845-33.91 22.065-28.5-5.775 17.41-20.01 35.84-11.555 54.7 10.867 14.68 31.994 20.87 34.744 41.44 5.55 14.55 17.97 39.18 36.75 26.05 6.19-17.5 17.55 1.37 9.56 11.23-3.28 19.65 4.57 38.71 1.81 58.66-4.85 9.93 13.39 39.13-3.84 34.42-3.71-6.5 1.28-36.36-7.97-29.35-0.77 24.55 2.9 48.99 3.8 73.46-2.6 4.86-11.17 3-15.86 3.87zm106.14-4.21c-6.93-25.44-14.68-51.22-13.88-77.91-7.42-18.84 0.27-36.42 9.35-53.07 1.28-8.77 15.01-29.13 8.62-8.55-7.43 19.5-17.98 39.4-13.74 60.97-0.61 26.8 10.09 51.89 13.61 78.04 0.15 2.8-3.17 2.6-3.96 0.52zm-61.67-42.35c-5.98-20.34-2.18-42.37-8.53-62.76-7.36-19.16 21.04-12.43 22.92-3.42-19.86 9.85-0.33 33.36-9.91 49.18 0.88 4.31 4.17 21.79-4.48 17zm9.79-91.56c-17.21 2.1-16.07-12.84-3.24-18.1 7.04-14.57 14.99-9.91 22.53 0.8 5.88 7.94 37.97 2.08 17.08 13.78-11.98 2.37-24.1 4.3-36.37 3.52zm59.22-27.09c-1.19-12.05 18.48-15.87 8.21-3.46-1.73 1.26-6.24 7.65-8.21 3.46zm-88.48-13.25c2.63-12.53 0.46-40.31 15.39-43.91 7.65 10.52-0.17 24.57-4.8 12.62-3.34 9.69-3.31 24.76-10.59 31.29zm101.62-4.75c6.46-15.51 13.04-34.22 15.94-52.25 5.76-15.78-0.08-39.93 11.34-50.39 2.1 17.37-6.47 36.75-7.11 55.24-3.89 15.58-3.04 41.5-20.17 47.4zm26.37-109.87c7.65-14.93 9.95-31.83 8.32-47.29 11.77 12.07 2.88 36.64-5.95 48.7l-1.62-0.17-0.75-1.24zm0.54-64.75c-4.21-23.328 12.75 6.66 0 0zm-4.65-17.14c-10.04-13.536 7.73-11.202 2.17 1.599l-2.17-1.599zm-154.01-18.956c-7.06-12.632-19.15-31.671-35.234-18.952-20.704-7.421 16.704-8.575 6.824-21.624 3.99-7.885-18.798-26.307-3.03-21.928 6.03 12.282 11 25.543 24.39 12.235 16.19-0.649-8.03 13.883-0.12 23.9 1.01 7.469 33.38 25.683 7.17 26.369zm-20.85-6.298c-11.26-7.548-2.04-18.4 2.88-3.827 1.09 1.597-0.58 6.293-2.88 3.827zm90.79-5.34c-1.5-9.74 10.54 3.834 0 0zm14.76-0.552c2.98-9.351-31.78-7.259-11.89-13.55 10.72-0.364 24.98 7.357 11.89 13.55zm-76.29-12.616c-0.46-6.51 16.42-16.603 7.3-3.885 0.33 4.427-4.26 5.229-7.3 3.885zm-11.49-5.497c-2.57-8.48 7.97 1.381 0 0zm45.25-5.231c-4.58-6.639-28.27-14.323-6.43-12.903 4.89-1.022 17.91 22.298 6.43 12.903z"/>
 <metadata>
  <rdf:RDF>
   <cc:Work>
    <dc:format>image/svg+xml</dc:format>
    <dc:type rdf:resource="http://purl.org/dc/dcmitype/StillImage"/>
    <cc:license rdf:resource="http://creativecommons.org/licenses/publicdomain/"/>
    <dc:publisher>
     <cc:Agent rdf:about="http://openclipart.org/">
      <dc:title>Openclipart</dc:title>
     </cc:Agent>
    </dc:publisher>
   </cc:Work>
   <cc:License rdf:about="http://creativecommons.org/licenses/publicdomain/">
    <cc:permits rdf:resource="http://creativecommons.org/ns#Reproduction"/>
    <cc:permits rdf:resource="http://creativecommons.org/ns#Distribution"/>
    <cc:permits rdf:resource="http://creativecommons.org/ns#DerivativeWorks"/>
   </cc:License>
  </rdf:RDF>
 </metadata>
</svg>
